<svg xmlns="http://www.w3.org/2000/svg" xmlns:xlink="http://www.w3.org/1999/xlink" viewBox="0 0 986.06 181"><defs><style>.cls-1,.cls-15,.cls-20,.cls-21,.cls-22{fill:none;}.cls-2{clip-path:url(#clip-path);}.cls-3{fill:#c9202f;}.cls-10,.cls-4{fill:#8e1a20;}.cls-11,.cls-12,.cls-5{fill:#fff;}.cls-6{fill:#db6971;}.cls-7{fill:#a24f55;}.cls-8{fill:#8b1920;}.cls-9{fill:#5c1116;}.cls-10,.cls-21{stroke:#5c1116;}.cls-10,.cls-12,.cls-15,.cls-20,.cls-21,.cls-22{stroke-miterlimit:10;}.cls-11,.cls-12{stroke:#d3d3d3;stroke-width:0.5px;}.cls-11{stroke-linecap:round;stroke-linejoin:round;}.cls-13{fill:#db2533;}.cls-14{fill:#541518;}.cls-15{stroke:#821820;}.cls-16{fill:#901a21;}.cls-17{fill:#dd2533;}.cls-18{fill:#c96068;}.cls-19{fill:#821820;}.cls-20{stroke:#901a21;}.cls-22{stroke:#541518;}</style><clipPath id="clip-path"><rect class="cls-1" x="0.03" width="986" height="181"/></clipPath></defs><g id="Layer_2" data-name="Layer 2"><g id="colline"><g class="cls-2"><path class="cls-3" d="M937,57.24c11.63,0,21-12.83,21-28.59S948.57,0,937,0s-21,12.83-21,28.59S925.44,57.24,937,57.24Z"/><path class="cls-4" d="M937.56,33.21h-1.15v79.47h1.15Z"/><path class="cls-5" d="M976.23,115.27c1.82-4.07-1.2-9.43-6.78-11.88s-11.55-1.21-13.34,2.91,1.19,9.42,6.78,11.87S974.38,119.33,976.23,115.27Z"/><path class="cls-6" d="M970.75,115.45c3.14-1.2,4.36-5.6,2.75-9.85s-5.45-6.74-8.59-5.57-4.36,5.61-2.75,9.86S967.62,116.63,970.75,115.45Z"/><path class="cls-7" d="M917.21,152.42c9.13-9.7,30.32-5.5,30.32-5.5s-4.16-20.12,15.56-24.68c14-3.19,19,15.66,19,15.66s1.54-.49,3.88-1v-18l-21.17-7.44.39-1.08L986,117.76v-3.37c-11.25-.51-20.28-13.13-20.28-28.57A35.57,35.57,0,0,1,970,68.53c-2.54-5.34-7.9-13-17.21-10.9C933.09,62.15,937,79.68,937,79.68s-6.05-11.35-17.32-8C908,75.09,909.09,83,909.09,83s-9.47-7.92-18,.92c-4.71,4.85-19.22,49.52-10.47,55.81,6.27,4.51,21.09,18.1,32,28.37C912.6,162.52,913.55,156.27,917.21,152.42Z"/><path class="cls-7" d="M925.77,180.56h20.78l-20.85-.06Z"/><path class="cls-3" d="M986,71.1V57.24c-6.51.3-12.29,4.66-16,11.28a32.25,32.25,0,0,1,1.83,4.76A51.88,51.88,0,0,1,986,71.1Z"/><path class="cls-3" d="M986,114.39V71.1a52.66,52.66,0,0,0-14.16,2.18A32.56,32.56,0,0,0,970,68.53a35.57,35.57,0,0,0-4.29,17.29C965.75,101.26,974.78,113.88,986,114.39Z"/><path class="cls-8" d="M965.24,110.4l-.38,1.08L986,118.92v-1.16Z"/><path class="cls-9" d="M914.07,180.45H925.7c-.56-.54-6-5.75-13.07-12.36A59.1,59.1,0,0,0,914.07,180.45Z"/><path class="cls-9" d="M946.55,180.56l39.48.13v-.13Z"/><path class="cls-9" d="M986,158.13V136.89c-2.37.51-3.88,1-3.88,1s-5.07-18.85-19-15.66c-19.72,4.53-15.56,24.65-15.56,24.65s-21.19-4.18-30.32,5.5c-3.66,3.88-4.61,10.1-4.58,15.72,7.06,6.61,12.51,11.82,13.07,12.36l20.85.06h39.48Z"/><path class="cls-5" d="M679.31,47.73h56.06v1.64H679.31Z"/><path class="cls-5" d="M679.31,58.65h56.06v1.64H679.31Z"/><path class="cls-5" d="M679.31,69.58h56.06v1.64H679.31Z"/><path class="cls-5" d="M633.38,64.74l27.36-27.4,27.37,27.4V160.6H633.38Z"/><path class="cls-10" d="M688.11,64.74h82.1V160.6h-82.1Z"/><path class="cls-9" d="M660.74,37.34H745.8l25,27.4H688.24Z"/><path class="cls-6" d="M947.5,165.62c-4.62-9.65-17.22-12.56-17.22-12.56s-.82-10.55-4.45-17.33c-8.31-15.52-22.4-11.21-22.4-11.21s0-22.42-21.19-22.67c-30.26-.38-30.78,23.68-41.18,26.6s-11.14-13.45-22-12.71-21.55,15.71-21.55,15.71-.2-.2-.56-.5V180.6h95.17l51.53-.27S951.6,174.35,947.5,165.62Z"/><path class="cls-11" d="M768.35,79.68V180.57h56V113.3H790.74Z"/><path class="cls-12" d="M790.74,113.3h33.61v67.26H790.74Z"/><path class="cls-11" d="M768.35,79.64H802l22.39,33.62H790.74Z"/><path class="cls-6" d="M802.57,124.52h11.2v11.2h-11.2Z"/><path class="cls-6" d="M802.57,148.18h11.2V159.4h-11.2Z"/><path class="cls-13" d="M656.94,79.68h22.37v11.2H656.94Z"/><path class="cls-13" d="M656.94,102.1h22.37v11.2H656.94Z"/><path class="cls-13" d="M701.75,79.68h22.4v11.2h-22.4Z"/><path class="cls-13" d="M735.36,79.68H757.8v11.2H735.36Z"/><path class="cls-13" d="M701.75,102.1h22.4v11.2h-22.4Z"/><path class="cls-13" d="M735.36,102.1H757.8v11.2H735.36Z"/><path class="cls-9" d="M578.53,79.68,612.13,46l44.8,33.64V180.57h-78.4Z"/><path class="cls-13" d="M477.75,79.68,522.56,46h89.6L578.53,79.68Z"/><path class="cls-4" d="M477.75,180.56V79.67h33.6l22.37-22.43,22.42,22.42h22.39V180.55Z"/><path class="cls-9" d="M533.72,57.24h44.81L556.14,79.68Z"/><path class="cls-9" d="M789.27,181s-.28-14.39-8.43-16.87c-4.5-1.38-9.6,1.77-9.6,1.77S773,153.29,766.66,149s-18.57-.32-18.57-.32-3.86-14.19-14.32-11.78c-14.84,3.4-16.73,11.25-16.73,11.25s-20.58-5.71-27.2,2.91c-5.29,6.89,7.06,29.59,7.06,29.59Z"/><path class="cls-6" d="M712.12,180.34s-.24-11.78-6.93-13.84c-3.7-1.13-7.88,1.46-7.88,1.46s1.44-10.39-3.76-13.84-15.24-.27-15.24-.27-3.14-11.65-11.77-9.71c-12.18,2.8-9.62,15.23-9.62,15.23s-14.33-3.88-20,2c-4.91,5.17-.64,19.12-.64,19.12Z"/><path class="cls-9" d="M488.93,90.88h11.2V113.3h-11.2Z"/><path class="cls-6" d="M488.93,135.73h11.2v33.63h-11.2Z"/><path class="cls-5" d="M511.32,90.88h11.2V113.3h-11.2Z"/><path class="cls-9" d="M511.32,135.73h11.2v33.63h-11.2Z"/><path class="cls-5" d="M533.72,90.88h11.21V113.3H533.72Z"/><path class="cls-5" d="M533.72,135.73h11.21v33.63H533.72Z"/><path class="cls-6" d="M556.14,90.88h11.19V113.3H556.14Z"/><path class="cls-9" d="M556.14,135.73h11.19v33.63H556.14Z"/><path class="cls-13" d="M589.73,90.88h11.2V102.1h-11.2Z"/><path class="cls-4" d="M612.14,90.88h11.2V102.1h-11.2Z"/><path class="cls-6" d="M634.54,90.88h11.2V102.1h-11.2Z"/><path class="cls-4" d="M634.54,113.3h11.2v11.22h-11.2Z"/><path class="cls-13" d="M634.54,135.73h11.2v11.21h-11.2Z"/><path class="cls-6" d="M589.73,113.3h11.2v11.22h-11.2Z"/><path class="cls-13" d="M612.14,113.3h11.2v11.22h-11.2Z"/><path class="cls-4" d="M589.73,135.73h11.2v11.21h-11.2Z"/><path class="cls-13" d="M589.73,158.13h11.2v11.21h-11.2Z"/><path class="cls-4" d="M612.14,135.73h11.2v11.21h-11.2Z"/><path class="cls-6" d="M612.14,158.13h11.2v11.21h-11.2Z"/><path class="cls-13" d="M645.74,158.18h-11.2V169.4h.05c0-3.08.59-6.06,2.34-7.92C639.05,159.21,642.43,158.37,645.74,158.18Z"/><path class="cls-14" d="M234.19,104.4s-26.69-29.11.21-58.12C234.4,46.33,260.69,69.36,234.19,104.4Z"/><path class="cls-15" d="M234.2,125.78V81"/><path class="cls-3" d="M271.1,104.78s-32.24-28,.26-55.85C271.35,48.91,303.09,71.05,271.1,104.78Z"/><path class="cls-15" d="M271.12,126.12V81.31"/><path class="cls-5" d="M66.23,121.44s-22.24-23.55.18-47C66.43,74.4,88.29,93.07,66.23,121.44Z"/><path class="cls-16" d="M66.73,87.6h-1v67.68h1Z"/><path class="cls-6" d="M368.55,106.8s-22.23-23.55.18-47C368.77,59.78,390.65,78.44,368.55,106.8Z"/><path class="cls-16" d="M369.09,73h-1v67.69h1Z"/><path class="cls-5" d="M322.34,107.33s-22.24-23.57.18-47C322.52,60.28,344.4,78.93,322.34,107.33Z"/><path class="cls-16" d="M322.84,73.48h-1v67.69h1Z"/><path class="cls-17" d="M36.61,117.3c9.86,0,17.87-10.92,17.87-24.35s-8-24.34-17.87-24.34S18.74,79.55,18.74,93,26.74,117.3,36.61,117.3Z"/><path class="cls-16" d="M37.14,72.32h-1V140h1Z"/><path class="cls-16" d="M28.13,97.93l-.39.89,8.94,3.88.38-.89Z"/><path class="cls-16" d="M23.4,89.48l-.39.9L36.2,96.11l.4-.89Z"/><path class="cls-16" d="M24.77,81.49l-.38.89,12.3,5.35.38-.89Z"/><path class="cls-16" d="M45.11,73l-8.46,5.23.51.79,8.41-5.23Z"/><path class="cls-16" d="M49.08,81.56,36.61,88.28l.45.86,12.49-6.68Z"/><path class="cls-3" d="M146.35,92c11.63,0,21-12.82,21-28.58s-9.35-28.6-21-28.6S125.42,47.63,125.42,63.4,134.82,92,146.35,92Z"/><path class="cls-7" d="M174.45,92.67c.43-3-2.57-5.91-6.67-6.49s-7.76,1.37-8.21,4.37,2.57,5.91,6.66,6.49S174,95.65,174.45,92.67Z"/><path class="cls-18" d="M173.34,85.31c.13-3.89-2.07-7.08-4.91-7.2s-5.25,3-5.37,6.79,2.06,7.07,4.9,7.19S173.2,89.18,173.34,85.31Z"/><path class="cls-19" d="M146.82,56.27h-1.14v79.47h1.15Z"/><path class="cls-8" d="M171.26,85.61,146.07,98.09l.5,1,25.2-12.49Z"/><path class="cls-14" d="M135.88,92.85c1.83-4.07-1.2-9.43-6.79-11.88s-11.55-1.22-13.34,2.91,1.19,9.42,6.78,11.87S134,96.92,135.88,92.85Z"/><path class="cls-5" d="M130.39,93c3.14-1.2,4.36-5.6,2.75-9.85s-5.49-6.74-8.58-5.56-4.36,5.59-2.75,9.85S127.26,94.24,130.39,93Z"/><path class="cls-8" d="M124.88,88,124.51,89l21.89,7.7.38-1Z"/><path class="cls-9" d="M434.39,98.71c11.58,0,21-12.82,21-28.59s-9.42-28.59-21-28.59-21,12.8-21,28.58S422.81,98.71,434.39,98.71Z"/><path class="cls-5" d="M455.66,108.74c.31-2.12-1.82-4.18-4.71-4.6s-5.49,1-5.81,3.1,1.82,4.2,4.71,4.62S455.4,110.88,455.66,108.74Z"/><path class="cls-19" d="M434.81,63h-1.12v79.48h1.15Z"/><path class="cls-8" d="M452.27,106.72l-17.88,8.85.36.73,17.9-8.87Z"/><path class="cls-6" d="M423.87,99.57c1.82-4.08-1.2-9.43-6.79-11.89s-11.54-1.21-13.34,2.91,1.2,9.42,6.78,11.88S422,103.66,423.87,99.57Z"/><path class="cls-8" d="M412.83,94.7l-.37,1.11,21.9,7.69.38-1Z"/><path class="cls-7" d="M100.38,107.69s-22.29-31.51.18-62.83C100.56,44.85,122.44,69.77,100.38,107.69Z"/><path class="cls-7" d="M306,107.69s-22.23-31.51.18-62.83C306.24,44.85,328.11,69.77,306,107.69Z"/><path class="cls-20" d="M306.05,114.85V81.21"/><path class="cls-5" d="M215.23,116.71s-26.68-29.11.21-58.11C215.44,58.63,241.71,81.68,215.23,116.71Z"/><path class="cls-21" d="M215.24,126.05V81.21"/><path class="cls-22" d="M100.39,135.73v-56"/><path class="cls-7" d="M477.75,129.26s-16,7.42-42.94-10.85-43.8-1.75-58.31,3.77-44-1.1-68.73-9.28c-26.12-8.65-74.43,1.08-88.6,8.18-12.37,6.2-35.94,12.11-52.46,8.18-17.27-4.11-19.38-8.18-39.65-8.18-26.69,0-32.38,19.33-40,19.34-21.6,0-17.08-8.41-41.13-8-14,.26-39.73,19.25-45.88,25.69v10.46a5.58,5.58,0,0,0,5.52,5.6l471.91,6.3Z"/><path class="cls-9" d="M477.75,146.07s-36.52-23.56-131.84,18.66c0,0-22,7.76-45.54-5.75s-65.25-17.62-86-10.84-21.36-4-34.82-3.64c-26.56.73-26.34,9.71-47.27,10.68s-20.14-5.19-36.45-6.92C78.4,146.4,5.31,165.39,0,169.34H0a11.2,11.2,0,0,0,11.2,11.21l466.52-.05Z"/></g></g><g id="Layer_22" data-name="Layer 22"><path class="cls-3" d="M937,57.24c11.63,0,21-12.83,21-28.59S948.57,0,937,0s-21,12.83-21,28.59S925.44,57.24,937,57.24Z"/><path class="cls-4" d="M937.56,33.21h-1.15v79.47h1.15Z"/><path class="cls-5" d="M976.23,115.27c1.82-4.07-1.2-9.43-6.78-11.88s-11.55-1.21-13.34,2.91,1.19,9.42,6.78,11.87S974.38,119.33,976.23,115.27Z"/><path class="cls-6" d="M970.75,115.45c3.14-1.2,4.36-5.6,2.75-9.85s-5.45-6.74-8.59-5.57-4.36,5.61-2.75,9.86S967.62,116.63,970.75,115.45Z"/><path class="cls-7" d="M917.21,152.42c9.13-9.7,30.32-5.5,30.32-5.5s-4.16-20.12,15.56-24.68c14-3.19,19,15.66,19,15.66s1.54-.49,3.88-1v-18l-21.17-7.44.39-1.08L986,117.76v-3.37c-11.25-.51-20.28-13.13-20.28-28.57A35.57,35.57,0,0,1,970,68.53c-2.54-5.34-7.9-13-17.21-10.9C933.09,62.15,937,79.68,937,79.68s-6.05-11.35-17.32-8C908,75.09,909.09,83,909.09,83s-9.47-7.92-18,.92c-4.71,4.85-19.22,49.52-10.47,55.81,6.27,4.51,21.09,18.1,32,28.37C912.6,162.52,913.55,156.27,917.21,152.42Z"/><path class="cls-7" d="M925.77,180.56h20.78l-20.85-.06Z"/><path class="cls-3" d="M986,71.1V57.24c-6.51.3-12.29,4.66-16,11.28a32.25,32.25,0,0,1,1.83,4.76A51.88,51.88,0,0,1,986,71.1Z"/><path class="cls-3" d="M986,114.39V71.1a52.66,52.66,0,0,0-14.16,2.18A32.56,32.56,0,0,0,970,68.53a35.57,35.57,0,0,0-4.29,17.29C965.75,101.26,974.78,113.88,986,114.39Z"/><path class="cls-8" d="M965.24,110.4l-.38,1.08L986,118.92v-1.16Z"/><path class="cls-9" d="M914.07,180.45H925.7c-.56-.54-6-5.75-13.07-12.36A59.1,59.1,0,0,0,914.07,180.45Z"/><path class="cls-9" d="M946.55,180.56l39.48.13v-.13Z"/><path class="cls-9" d="M986,158.13V136.89c-2.37.51-3.88,1-3.88,1s-5.07-18.85-19-15.66c-19.72,4.53-15.56,24.65-15.56,24.65s-21.19-4.18-30.32,5.5c-3.66,3.88-4.61,10.1-4.58,15.72,7.06,6.61,12.51,11.82,13.07,12.36l20.85.06h39.48Z"/><path class="cls-5" d="M679.31,47.73h56.06v1.64H679.31Z"/><path class="cls-5" d="M679.31,58.65h56.06v1.64H679.31Z"/><path class="cls-5" d="M679.31,69.58h56.06v1.64H679.31Z"/><path class="cls-5" d="M633.38,64.74l27.36-27.4,27.37,27.4V160.6H633.38Z"/><path class="cls-10" d="M688.11,64.74h82.1V160.6h-82.1Z"/><path class="cls-9" d="M660.74,37.34H745.8l25,27.4H688.24Z"/><path class="cls-6" d="M947.5,165.62c-4.62-9.65-17.22-12.56-17.22-12.56s-.82-10.55-4.45-17.33c-8.31-15.52-22.4-11.21-22.4-11.21s0-22.42-21.19-22.67c-30.26-.38-30.78,23.68-41.18,26.6s-11.14-13.45-22-12.71-21.55,15.71-21.55,15.71-.2-.2-.56-.5V180.6h95.17l51.53-.27S951.6,174.35,947.5,165.62Z"/><path class="cls-11" d="M768.35,79.68V180.57h56V113.3H790.74Z"/><path class="cls-12" d="M790.74,113.3h33.61v67.26H790.74Z"/><path class="cls-11" d="M768.35,79.64H802l22.39,33.62H790.74Z"/><path class="cls-6" d="M802.57,124.52h11.2v11.2h-11.2Z"/><path class="cls-6" d="M802.57,148.18h11.2V159.4h-11.2Z"/><path class="cls-13" d="M656.94,79.68h22.37v11.2H656.94Z"/><path class="cls-13" d="M656.94,102.1h22.37v11.2H656.94Z"/><path class="cls-13" d="M701.75,79.68h22.4v11.2h-22.4Z"/><path class="cls-13" d="M735.36,79.68H757.8v11.2H735.36Z"/><path class="cls-13" d="M701.75,102.1h22.4v11.2h-22.4Z"/><path class="cls-13" d="M735.36,102.1H757.8v11.2H735.36Z"/><path class="cls-9" d="M578.53,79.68,612.13,46l44.8,33.64V180.57h-78.4Z"/><path class="cls-13" d="M477.75,79.68,522.56,46h89.6L578.53,79.68Z"/><path class="cls-4" d="M477.75,180.56V79.67h33.6l22.37-22.43,22.42,22.42h22.39V180.55Z"/><path class="cls-9" d="M533.72,57.24h44.81L556.14,79.68Z"/><path class="cls-9" d="M789.27,181s-.28-14.39-8.43-16.87c-4.5-1.38-9.6,1.77-9.6,1.77S773,153.29,766.66,149s-18.57-.32-18.57-.32-3.86-14.19-14.32-11.78c-14.84,3.4-16.73,11.25-16.73,11.25s-20.58-5.71-27.2,2.91c-5.29,6.89,7.06,29.59,7.06,29.59Z"/><path class="cls-6" d="M712.12,180.34s-.24-11.78-6.93-13.84c-3.7-1.13-7.88,1.46-7.88,1.46s1.44-10.39-3.76-13.84-15.24-.27-15.24-.27-3.14-11.65-11.77-9.71c-12.18,2.8-9.62,15.23-9.62,15.23s-14.33-3.88-20,2c-4.91,5.17-.64,19.12-.64,19.12Z"/><path class="cls-9" d="M488.93,90.88h11.2V113.3h-11.2Z"/><path class="cls-6" d="M488.93,135.73h11.2v33.63h-11.2Z"/><path class="cls-5" d="M511.32,90.88h11.2V113.3h-11.2Z"/><path class="cls-9" d="M511.32,135.73h11.2v33.63h-11.2Z"/><path class="cls-5" d="M533.72,90.88h11.21V113.3H533.72Z"/><path class="cls-5" d="M533.72,135.73h11.21v33.63H533.72Z"/><path class="cls-6" d="M556.14,90.88h11.19V113.3H556.14Z"/><path class="cls-9" d="M556.14,135.73h11.19v33.63H556.14Z"/><path class="cls-13" d="M589.73,90.88h11.2V102.1h-11.2Z"/><path class="cls-4" d="M612.14,90.88h11.2V102.1h-11.2Z"/><path class="cls-6" d="M634.54,90.88h11.2V102.1h-11.2Z"/><path class="cls-4" d="M634.54,113.3h11.2v11.22h-11.2Z"/><path class="cls-13" d="M634.54,135.73h11.2v11.21h-11.2Z"/><path class="cls-6" d="M589.73,113.3h11.2v11.22h-11.2Z"/><path class="cls-13" d="M612.14,113.3h11.2v11.22h-11.2Z"/><path class="cls-4" d="M589.73,135.73h11.2v11.21h-11.2Z"/><path class="cls-13" d="M589.73,158.13h11.2v11.21h-11.2Z"/><path class="cls-4" d="M612.14,135.73h11.2v11.21h-11.2Z"/><path class="cls-6" d="M612.14,158.13h11.2v11.21h-11.2Z"/><path class="cls-13" d="M645.74,158.18h-11.2V169.4h.05c0-3.08.59-6.06,2.34-7.92C639.05,159.21,642.43,158.37,645.74,158.18Z"/><path class="cls-14" d="M234.19,104.4s-26.69-29.11.21-58.12C234.4,46.33,260.69,69.36,234.19,104.4Z"/><path class="cls-15" d="M234.2,125.78V81"/><path class="cls-3" d="M271.1,104.78s-32.24-28,.26-55.85C271.35,48.91,303.09,71.05,271.1,104.78Z"/><path class="cls-15" d="M271.12,126.12V81.31"/><path class="cls-5" d="M66.23,121.44s-22.24-23.55.18-47C66.43,74.4,88.29,93.07,66.23,121.44Z"/><path class="cls-16" d="M66.73,87.6h-1v67.68h1Z"/><path class="cls-6" d="M368.55,106.8s-22.23-23.55.18-47C368.77,59.78,390.65,78.44,368.55,106.8Z"/><path class="cls-16" d="M369.09,73h-1v67.69h1Z"/><path class="cls-5" d="M322.34,107.33s-22.24-23.57.18-47C322.52,60.28,344.4,78.93,322.34,107.33Z"/><path class="cls-16" d="M322.84,73.48h-1v67.69h1Z"/><path class="cls-17" d="M36.61,117.3c9.86,0,17.87-10.92,17.87-24.35s-8-24.34-17.87-24.34S18.74,79.55,18.74,93,26.74,117.3,36.61,117.3Z"/><path class="cls-16" d="M37.14,72.32h-1V140h1Z"/><path class="cls-16" d="M28.13,97.93l-.39.89,8.94,3.88.38-.89Z"/><path class="cls-16" d="M23.4,89.48l-.39.9L36.2,96.11l.4-.89Z"/><path class="cls-16" d="M24.77,81.49l-.38.89,12.3,5.35.38-.89Z"/><path class="cls-16" d="M45.11,73l-8.46,5.23.51.79,8.41-5.23Z"/><path class="cls-16" d="M49.08,81.56,36.61,88.28l.45.86,12.49-6.68Z"/><path class="cls-3" d="M146.35,92c11.63,0,21-12.82,21-28.58s-9.35-28.6-21-28.6S125.42,47.63,125.42,63.4,134.82,92,146.35,92Z"/><path class="cls-7" d="M174.45,92.67c.43-3-2.57-5.91-6.67-6.49s-7.76,1.37-8.21,4.37,2.57,5.91,6.66,6.49S174,95.65,174.45,92.67Z"/><path class="cls-18" d="M173.34,85.31c.13-3.89-2.07-7.08-4.91-7.2s-5.25,3-5.37,6.79,2.06,7.07,4.9,7.19S173.2,89.18,173.34,85.31Z"/><path class="cls-19" d="M146.82,56.27h-1.14v79.47h1.15Z"/><path class="cls-8" d="M171.26,85.61,146.07,98.09l.5,1,25.2-12.49Z"/><path class="cls-14" d="M135.88,92.85c1.83-4.07-1.2-9.43-6.79-11.88s-11.55-1.22-13.34,2.91,1.19,9.42,6.78,11.87S134,96.92,135.88,92.85Z"/><path class="cls-5" d="M130.39,93c3.14-1.2,4.36-5.6,2.75-9.85s-5.49-6.74-8.58-5.56-4.36,5.59-2.75,9.85S127.26,94.24,130.39,93Z"/><path class="cls-8" d="M124.88,88,124.51,89l21.89,7.7.38-1Z"/><path class="cls-9" d="M434.39,98.71c11.58,0,21-12.82,21-28.59s-9.42-28.59-21-28.59-21,12.8-21,28.58S422.81,98.71,434.39,98.71Z"/><path class="cls-5" d="M455.66,108.74c.31-2.12-1.82-4.18-4.71-4.6s-5.49,1-5.81,3.1,1.82,4.2,4.71,4.62S455.4,110.88,455.66,108.74Z"/><path class="cls-19" d="M434.81,63h-1.12v79.48h1.15Z"/><path class="cls-8" d="M452.27,106.72l-17.88,8.85.36.73,17.9-8.87Z"/><path class="cls-6" d="M423.87,99.57c1.82-4.08-1.2-9.43-6.79-11.89s-11.54-1.21-13.34,2.91,1.2,9.42,6.78,11.88S422,103.66,423.87,99.57Z"/><path class="cls-8" d="M412.83,94.7l-.37,1.11,21.9,7.69.38-1Z"/><path class="cls-7" d="M100.38,107.69s-22.29-31.51.18-62.83C100.56,44.85,122.44,69.77,100.38,107.69Z"/><path class="cls-7" d="M306,107.69s-22.23-31.51.18-62.83C306.24,44.85,328.11,69.77,306,107.69Z"/><path class="cls-20" d="M306.05,114.85V81.21"/><path class="cls-5" d="M215.23,116.71s-26.68-29.11.21-58.11C215.44,58.63,241.71,81.68,215.23,116.71Z"/><path class="cls-21" d="M215.24,126.05V81.21"/><path class="cls-22" d="M100.39,135.73v-56"/><path class="cls-7" d="M477.75,129.26s-16,7.42-42.94-10.85-43.8-1.75-58.31,3.77-44-1.1-68.73-9.28c-26.12-8.65-74.43,1.08-88.6,8.18-12.37,6.2-35.94,12.11-52.46,8.18-17.27-4.11-19.38-8.18-39.65-8.18-26.69,0-32.38,19.33-40,19.34-21.6,0-17.08-8.41-41.13-8-14,.26-39.73,19.25-45.88,25.69v10.46a5.58,5.58,0,0,0,5.52,5.6l471.91,6.3Z"/><path class="cls-9" d="M477.75,146.07s-36.52-23.56-131.84,18.66c0,0-22,7.76-45.54-5.75s-65.25-17.62-86-10.84-21.36-4-34.82-3.64c-26.56.73-26.34,9.71-47.27,10.68s-20.14-5.19-36.45-6.92C78.4,146.4,5.31,165.39,0,169.34H0a11.2,11.2,0,0,0,11.2,11.21l466.52-.05Z"/></g></g></svg>