<svg xmlns="http://www.w3.org/2000/svg" viewBox="0 0 1555.86 1079.15"><defs><style>.cls-1{fill:none;}.cls-2{fill:#db2533;}.cls-14,.cls-3{fill:#8e1a20;}.cls-15,.cls-16,.cls-4{fill:#fff;}.cls-5{fill:#5c1116;}.cls-6{fill:#c9202f;}.cls-7{fill:#db6971;}.cls-8{fill:#a24f55;}.cls-9{fill:#901a21;}.cls-10,.cls-18,.cls-20,.cls-21{fill:none;}.cls-10{stroke:#901a21;}.cls-10,.cls-14,.cls-16,.cls-18,.cls-20,.cls-21{stroke-miterlimit:10;}.cls-11{fill:#c96068;}.cls-12{fill:#821820;}.cls-13{fill:#8b1920;}.cls-14,.cls-20{stroke:#5c1116;}.cls-15,.cls-16{stroke:#d3d3d3;stroke-width:0.5px;}.cls-15{stroke-linecap:round;stroke-linejoin:round;}.cls-17{fill:#541518;}.cls-18{stroke:#821820;}.cls-19{fill:#dd2533;}.cls-21{stroke:#541518;}</style></defs><g id="Layer_2" data-name="Layer 2"><g id="Layer_22" data-name="Layer 22"><g id="Background"><rect class="cls-1" width="1555.86" height="1079.15" transform="translate(1555.86 1079.15) rotate(-180)"/></g><g id="palazzo_01"><polygon class="cls-2" points="570.8 526.37 513.16 511.66 499.59 508.19 499.59 879.32 570.96 879.32 570.8 526.37"/><rect class="cls-3" x="413.95" y="508.19" width="85.64" height="328.3"/></g><g id="finestre_palazzo_01"><rect class="cls-4" x="499.55" y="529.37" width="71.45" height="2.09"/><rect class="cls-4" x="499.55" y="543.28" width="71.45" height="2.09"/><rect class="cls-4" x="499.55" y="557.19" width="71.45" height="2.09"/><rect class="cls-4" x="499.55" y="571.1" width="71.45" height="2.09"/><rect class="cls-4" x="499.55" y="585.01" width="71.45" height="2.09"/><rect class="cls-4" x="499.55" y="598.91" width="71.45" height="2.09"/><rect class="cls-4" x="499.55" y="612.82" width="71.45" height="2.09"/><rect class="cls-4" x="499.55" y="626.73" width="71.45" height="2.09"/><rect class="cls-4" x="499.55" y="640.64" width="71.45" height="2.09"/><rect class="cls-4" x="499.55" y="654.55" width="71.45" height="2.09"/><rect class="cls-4" x="499.55" y="668.45" width="71.45" height="2.09"/><rect class="cls-4" x="499.55" y="682.36" width="71.45" height="2.09"/><rect class="cls-4" x="499.55" y="696.27" width="71.45" height="2.09"/><rect class="cls-4" x="499.55" y="710.18" width="71.45" height="2.09"/><rect class="cls-4" x="499.55" y="724.09" width="71.45" height="2.09"/><rect class="cls-4" x="499.55" y="737.99" width="71.45" height="2.09"/><rect class="cls-4" x="413.95" y="529.37" width="85.59" height="2.09"/><rect class="cls-4" x="413.95" y="543.28" width="85.59" height="2.09"/><rect class="cls-4" x="413.95" y="557.25" width="85.59" height="2.09"/><rect class="cls-4" x="413.95" y="571.16" width="85.59" height="2.09"/><rect class="cls-4" x="413.95" y="585.07" width="85.59" height="2.09"/><rect class="cls-4" x="413.95" y="598.97" width="85.59" height="2.09"/><rect class="cls-4" x="413.95" y="612.88" width="85.59" height="2.09"/><rect class="cls-4" x="413.95" y="626.79" width="85.59" height="2.09"/><rect class="cls-4" x="413.95" y="640.7" width="85.59" height="2.09"/><rect class="cls-4" x="413.95" y="654.61" width="85.59" height="2.09"/><rect class="cls-4" x="413.95" y="668.51" width="85.59" height="2.09"/><rect class="cls-4" x="413.95" y="682.42" width="85.59" height="2.09"/><rect class="cls-4" x="413.95" y="696.33" width="85.59" height="2.09"/><rect class="cls-4" x="413.95" y="710.24" width="85.59" height="2.09"/><rect class="cls-4" x="413.95" y="724.15" width="85.59" height="2.09"/><rect class="cls-4" x="413.95" y="738.05" width="85.59" height="2.09"/></g><g id="palazzo_03"><rect class="cls-5" x="127.45" y="551.01" width="42.82" height="271.21"/><rect class="cls-4" x="170.27" y="551.01" width="114.19" height="242.66"/><rect class="cls-2" x="184.55" y="536.74" width="57.1" height="14.27"/><rect class="cls-3" x="141.72" y="536.74" width="42.82" height="14.27"/></g><g id="finestre_palazzo_03"><rect class="cls-3" x="184.55" y="565.29" width="14.27" height="185.56"/><rect class="cls-3" x="213.09" y="565.29" width="14.27" height="185.56"/><rect class="cls-6" x="184.55" y="579.56" width="14.27" height="14.27"/><rect class="cls-7" x="213.09" y="636.66" width="14.27" height="14.27"/><rect class="cls-4" x="137.75" y="566.27" width="14.27" height="8.86"/><rect class="cls-7" x="137.75" y="583.99" width="14.27" height="8.86"/><rect class="cls-2" x="137.75" y="601.68" width="14.27" height="8.86"/><rect class="cls-4" x="137.75" y="619.4" width="14.27" height="8.86"/><rect class="cls-2" x="137.75" y="637.64" width="14.27" height="8.86"/><rect class="cls-7" x="137.75" y="655.36" width="14.27" height="8.86"/><rect class="cls-4" x="137.75" y="673.61" width="14.27" height="8.86"/><rect class="cls-2" x="137.75" y="691.33" width="14.27" height="8.86"/><rect class="cls-7" x="137.75" y="709.57" width="14.27" height="8.86"/><rect class="cls-2" x="137.75" y="727.29" width="14.27" height="8.86"/><rect class="cls-4" x="137.75" y="745.54" width="14.27" height="8.86"/></g><g id="cespuglio_03"><g id="albero"><path class="cls-6" d="M242.66,722.21c-14.76,0-26.72-16.33-26.72-36.4s12-36.42,26.72-36.42,26.72,16.33,26.72,36.41S257.41,722.21,242.66,722.21Z"/><path class="cls-3" d="M241.93,691.68h1.46v101.2h-1.46Z"/></g><path class="cls-8" d="M128.47,797.33S125.9,775,134.06,770c6.82-4.15,24.95,1.77,24.95,1.77s-3-21.41,7.74-28.55,31.45-.54,31.45-.54,6.48-24,24.26-19.94c25.12,5.76,20.2,28.08,20.2,28.08s7.71-14.49,22.07-10.24c14.82,4.39,13.47,14.54,13.47,14.54s12.07-10.11,23,1.14c6,6.22,24.47,63.07,13.33,71.08-13.42,9.63-57.58,52-57.58,52H57.1s-7.14-17.85,0-28.55,28.54-14.28,28.54-14.28-11.3-22.17.89-33C100.15,791.45,128.47,797.33,128.47,797.33Z"/></g><g id="palazzo_02"><rect class="cls-2" x="356.85" y="451.1" width="57.1" height="371.12"/><polygon class="cls-5" points="356.04 466.64 256.2 466.64 256.73 867.66 356.57 867.66 356.04 466.64"/></g><g id="finestre_palazzo_02"><rect class="cls-7" x="328.3" y="779.4" width="14.27" height="14.27"/><rect class="cls-2" x="299.75" y="779.4" width="14.27" height="14.27"/><rect class="cls-4" x="271.21" y="779.4" width="14.27" height="14.27"/><rect class="cls-2" x="328.3" y="493.92" width="14.27" height="14.27"/><rect class="cls-7" x="328.3" y="522.47" width="14.27" height="14.27"/><rect class="cls-2" x="328.3" y="551.01" width="14.27" height="14.27"/><rect class="cls-4" x="328.3" y="579.56" width="14.27" height="14.27"/><rect class="cls-2" x="328.3" y="608.11" width="14.27" height="14.27"/><rect class="cls-4" x="299.75" y="493.92" width="14.27" height="14.27"/><rect class="cls-2" x="299.75" y="522.47" width="14.27" height="14.27"/><rect class="cls-2" x="299.75" y="551.01" width="14.27" height="14.27"/><rect class="cls-2" x="299.75" y="579.56" width="14.27" height="14.27"/><rect class="cls-2" x="299.75" y="608.11" width="14.27" height="14.27"/><rect class="cls-2" x="271.21" y="493.92" width="14.27" height="14.27"/><rect class="cls-2" x="271.21" y="522.47" width="14.27" height="14.27"/><rect class="cls-4" x="271.21" y="551.01" width="14.27" height="14.27"/><rect class="cls-2" x="271.21" y="579.56" width="14.27" height="14.27"/><rect class="cls-7" x="271.21" y="608.11" width="14.27" height="14.27"/><rect class="cls-7" x="328.3" y="636.66" width="14.27" height="14.27"/><rect class="cls-4" x="299.75" y="636.66" width="14.27" height="14.27"/><rect class="cls-2" x="271.21" y="636.66" width="14.27" height="14.27"/><rect class="cls-2" x="328.3" y="665.21" width="14.27" height="14.27"/><rect class="cls-2" x="299.75" y="665.21" width="14.27" height="14.27"/><rect class="cls-2" x="271.21" y="665.21" width="14.27" height="14.27"/><rect class="cls-2" x="328.3" y="693.75" width="14.27" height="14.27"/><rect class="cls-2" x="299.75" y="693.75" width="14.27" height="14.27"/><rect class="cls-4" x="271.21" y="693.75" width="14.27" height="14.27"/><rect class="cls-2" x="328.3" y="722.3" width="14.27" height="14.27"/><rect class="cls-2" x="299.75" y="722.3" width="14.27" height="14.27"/><rect class="cls-7" x="271.21" y="722.3" width="14.27" height="14.27"/><rect class="cls-4" x="328.3" y="750.85" width="14.27" height="14.27"/><rect class="cls-2" x="299.75" y="750.85" width="14.27" height="14.27"/><rect class="cls-2" x="271.21" y="750.85" width="14.27" height="14.27"/><rect class="cls-3" x="356.85" y="465.37" width="57.1" height="14.27"/><rect class="cls-3" x="356.85" y="493.92" width="57.1" height="14.27"/><rect class="cls-3" x="356.85" y="522.47" width="57.1" height="14.27"/><rect class="cls-3" x="356.85" y="551.01" width="57.1" height="14.27"/><rect class="cls-3" x="356.85" y="579.56" width="57.1" height="14.27"/><rect class="cls-3" x="356.85" y="608.11" width="57.1" height="14.27"/><rect class="cls-3" x="356.85" y="636.66" width="57.1" height="14.27"/><rect class="cls-3" x="356.85" y="665.21" width="57.1" height="14.27"/><rect class="cls-3" x="356.85" y="693.75" width="57.1" height="14.27"/><rect class="cls-3" x="356.85" y="722.3" width="57.1" height="14.27"/><rect class="cls-3" x="356.85" y="750.85" width="57.1" height="14.27"/><rect class="cls-3" x="356.85" y="779.4" width="57.1" height="14.27"/></g><g id="alberi_02"><path class="cls-6" d="M38.78,860.09s41.47-34.93-.34-69.67C38.44,790.42-2.37,818.05,38.78,860.09Z"/><path class="cls-9" d="M38.14,796.61h1.24v86.18H38.14Z"/><path class="cls-4" d="M59.54,843.07s42.73-42.32-.34-84.39C59.2,758.68,17.15,792.14,59.54,843.07Z"/><line class="cls-10" x1="59.52" y1="879.67" x2="59.52" y2="806.46"/><path class="cls-6" d="M179.24,795.08c-14.76,0-26.73-16.33-26.73-36.4s12-36.41,26.73-36.41S206,738.6,206,758.68,194,795.08,179.24,795.08Z"/><path class="cls-8" d="M143.52,795.91c-.54-3.82,3.26-7.52,8.49-8.27s9.91,1.75,10.46,5.57-3.27,7.53-8.49,8.27S144.06,799.73,143.52,795.91Z"/><path class="cls-11" d="M144.9,786.56c-.17-4.9,2.63-9,6.25-9.15s6.69,3.78,6.86,8.7-2.63,9-6.25,9.15S145.07,791.49,144.9,786.56Z"/><path class="cls-12" d="M178.7,749.6h1.46V850.8H178.7Z"/><path class="cls-13" d="M147.55,786.9l32.12,15.91-.64,1.3-32.15-15.9Z"/><path class="cls-4" d="M192.64,796.17c-2.32-5.19,1.53-12,8.6-15.13s14.71-1.54,17,3.64-1.52,12-8.59,15.13S195,801.35,192.64,796.17Z"/><path class="cls-7" d="M199.63,796.39c-4-1.51-5.56-7.12-3.5-12.53s6.94-8.59,10.93-7.08,5.56,7.13,3.51,12.54S203.62,797.9,199.63,796.39Z"/><path class="cls-13" d="M206.65,790l.49,1.37-27.91,9.8-.48-1.31Z"/></g><g id="casa_02"><polygon class="cls-4" points="629.54 731.82 594.67 696.95 559.79 731.82 559.79 853.89 629.54 853.89 629.54 731.82"/><rect class="cls-14" x="455.17" y="731.82" width="104.63" height="122.06"/><polygon class="cls-5" points="594.67 696.95 486.27 696.95 454.48 731.82 559.62 731.82 594.67 696.95"/></g><g id="cespugli_02"><path class="cls-5" d="M115.39,879.67s.48-24.34,14.27-28.54c7.64-2.33,16.28,3,16.28,3s-3-21.41,7.73-28.55,31.46-.54,31.46-.54,6.47-24,24.26-19.94c25.12,5.76,19.83,31.38,19.83,31.38s27-5.32,38.63,7c10.13,10.67,4,35.71,4,35.71Z"/><path class="cls-3" d="M229.26,860.29c5.88-12.29,22-16,22-16s1.05-13.43,5.67-22.06C267.52,802.47,285.48,808,285.48,808s0-28.55,27-28.89c38.56-.48,39.21,30.16,52.48,33.88s14.18-17.13,28-16.18,27.35,20,27.35,20,.25-.23.72-.62v63.23H299.75L234.08,879S224,871.38,229.26,860.29Z"/></g><g id="casa_03"><polygon class="cls-15" points="457.54 750.85 457.54 879.32 386.17 879.32 386.17 793.67 428.99 793.67 457.54 750.85"/><rect class="cls-16" x="386.17" y="793.67" width="42.82" height="85.64"/><polygon class="cls-15" points="457.54 750.8 414.71 750.8 386.17 793.62 428.99 793.62 457.54 750.8"/></g><g id="finestre_casa_03"><rect class="cls-7" x="399.67" y="807.95" width="14.27" height="14.27"/><rect class="cls-7" x="399.67" y="838.08" width="14.27" height="14.27"/></g><g id="finestre_casa_02"><rect class="cls-2" x="570.96" y="750.85" width="28.55" height="14.27"/><rect class="cls-2" x="570.96" y="779.4" width="28.55" height="14.27"/><rect class="cls-2" x="513.86" y="750.85" width="28.55" height="14.27"/><rect class="cls-2" x="471.04" y="750.85" width="28.55" height="14.27"/><rect class="cls-2" x="513.86" y="779.4" width="28.55" height="14.27"/><rect class="cls-2" x="471.04" y="779.4" width="28.55" height="14.27"/></g><g id="casa_01"><polygon class="cls-5" points="699.42 750.85 656.6 708.03 599.51 750.85 599.51 879.32 699.42 879.32 699.42 750.85"/><polygon class="cls-2" points="827.89 750.85 770.79 708.03 656.6 708.03 699.42 750.85 827.89 750.85"/><polygon class="cls-3" points="827.89 879.32 827.89 750.85 785.07 750.85 756.52 722.3 727.97 750.85 699.42 750.85 699.42 879.32 827.89 879.32"/><polygon class="cls-5" points="756.52 722.3 699.42 722.3 727.97 750.85 756.52 722.3"/></g><g id="cespugli_01"><path class="cls-5" d="M430.88,879.86s.36-18.32,10.74-21.48c5.74-1.75,12.24,2.27,12.24,2.27s-2.23-16.11,5.83-21.48,23.67-.41,23.67-.41,4.87-18.08,18.25-15c18.91,4.34,21.31,14.33,21.31,14.33s26.23-7.28,34.67,3.72c6.74,8.78-9,37.68-9,37.68Z"/><path class="cls-3" d="M529.2,879s.3-15,8.82-17.63c4.72-1.44,10.05,1.86,10.05,1.86s-1.83-13.22,4.78-17.63,19.43-.34,19.43-.34,4-14.83,15-12.31c15.52,3.55,12.25,19.38,12.25,19.38s18.27-5,25.48,2.61c6.26,6.59.81,24.35.81,24.35Z"/></g><g id="finestre_casa_01"><rect class="cls-5" x="799.34" y="765.12" width="14.27" height="28.55"/><rect class="cls-7" x="799.34" y="822.22" width="14.27" height="42.82"/><rect class="cls-4" x="770.8" y="765.12" width="14.27" height="28.55"/><rect class="cls-5" x="770.8" y="822.22" width="14.27" height="42.82"/><rect class="cls-4" x="742.25" y="765.12" width="14.27" height="28.55"/><rect class="cls-4" x="742.25" y="822.22" width="14.27" height="42.82"/><rect class="cls-7" x="713.7" y="765.12" width="14.27" height="28.55"/><rect class="cls-5" x="713.7" y="822.22" width="14.27" height="42.82"/><rect class="cls-2" x="670.88" y="765.12" width="14.27" height="14.27"/><rect class="cls-3" x="642.33" y="765.12" width="14.27" height="14.27"/><rect class="cls-7" x="613.78" y="765.12" width="14.27" height="14.27"/><rect class="cls-3" x="613.78" y="793.67" width="14.27" height="14.27"/><rect class="cls-2" x="613.78" y="822.22" width="14.27" height="14.27"/><rect class="cls-7" x="670.88" y="793.67" width="14.27" height="14.27"/><rect class="cls-2" x="642.33" y="793.67" width="14.27" height="14.27"/><rect class="cls-3" x="670.88" y="822.22" width="14.27" height="14.27"/><rect class="cls-2" x="670.88" y="850.77" width="14.27" height="14.27"/><rect class="cls-3" x="642.33" y="822.22" width="14.27" height="14.27"/><rect class="cls-7" x="642.33" y="850.77" width="14.27" height="14.27"/><path class="cls-2" d="M613.78,850.81v0h14.28V865H628c0-3.9-.76-7.71-3-10.07C622.3,852.12,618,851.05,613.78,850.81Z"/></g><g id="lago"><rect class="cls-7" y="879.32" width="1555.86" height="99.92"/><path class="cls-4" d="M1376.75,907.12c-34.26-2.1-134.13-2-157,0s52.66,4.14,65.49,8.19-34.09,5.4-14.2,8,72.35,4.42,93.79,2.46-11-5.61-8-10.28S1411,909.22,1376.75,907.12Z"/><path class="cls-4" d="M1134.24,904.38c-14.76-1.3-60.71-2-77.67.39s25.28,6.2,9.8,9-62.82.53-71.71,2.31,29,1.34,36.15,4.8-25.33,7-7.69,9,64.21,1.44,78.24-.77-27.92-5.14-22.11-8.07,36.29-.87,45.37-3.66-11.44-4.23-9-7.49S1149,905.68,1134.24,904.38Z"/></g><g id="alberi_background"><path class="cls-17" d="M1138.22,782.33s34-37.08-.28-74C1137.94,708.37,1104.46,737.7,1138.22,782.33Z"/><line class="cls-18" x1="1138.2" y1="809.56" x2="1138.2" y2="752.46"/><path class="cls-6" d="M1091.18,782.78s41.09-35.65-.33-71.1C1090.85,711.68,1050.42,739.88,1091.18,782.78Z"/><line class="cls-18" x1="1091.16" y1="810.01" x2="1091.16" y2="752.92"/><path class="cls-4" d="M1352.25,804s28.34-30-.22-59.91C1352,744.13,1324.14,767.89,1352.25,804Z"/><path class="cls-9" d="M1351.62,760.94h1.24v86.19h-1.24Z"/><path class="cls-7" d="M967,785.42s28.34-30-.22-59.91C966.73,725.51,938.84,749.27,967,785.42Z"/><path class="cls-9" d="M966.32,742.33h1.24v86.18h-1.24Z"/><path class="cls-4" d="M1025.89,786.05s28.34-30-.22-59.9C1025.67,726.15,997.78,749.91,1025.89,786.05Z"/><path class="cls-9" d="M1025.26,743h1.24v86.18h-1.24Z"/><path class="cls-19" d="M1390,798.75c-12.58,0-22.77-13.91-22.77-31s10.19-31,22.77-31,22.76,13.91,22.76,31S1402.58,798.75,1390,798.75Z"/><path class="cls-9" d="M1389.32,741.49h1.23v86.18h-1.23Z"/><path class="cls-9" d="M1400.79,774.08l.49,1.14-11.39,4.94-.49-1.13Z"/><path class="cls-9" d="M1406.83,763.34l.49,1.14-16.81,7.29-.5-1.13Z"/><path class="cls-9" d="M1405.08,753.18l.49,1.14-15.68,6.8-.49-1.14Z"/><path class="cls-9" d="M1379.17,742.37l10.77,6.66-.65,1.05-10.75-6.65Z"/><path class="cls-9" d="M1374.1,753.25l15.9,8.61-.58,1.09-15.91-8.61Z"/><path class="cls-6" d="M1250.1,766.54c-14.76,0-26.73-16.33-26.73-36.4s12-36.42,26.73-36.42,26.72,16.33,26.72,36.41S1264.85,766.54,1250.1,766.54Z"/><path class="cls-8" d="M1214.37,767.36c-.54-3.82,3.27-7.52,8.5-8.26s9.91,1.74,10.46,5.57-3.27,7.52-8.49,8.27S1214.92,771.18,1214.37,767.36Z"/><path class="cls-11" d="M1215.76,758c-.17-4.9,2.63-9,6.25-9.15s6.69,3.78,6.86,8.7-2.63,9-6.25,9.15S1215.93,762.94,1215.76,758Z"/><path class="cls-12" d="M1249.56,721.06H1251V822.25h-1.46Z"/><path class="cls-13" d="M1218.4,758.35l32.13,15.91-.64,1.31-32.16-15.91Z"/><path class="cls-17" d="M1263.5,767.62c-2.33-5.18,1.52-12,8.6-15.13s14.71-1.54,17,3.64-1.52,12-8.59,15.13S1265.84,772.81,1263.5,767.62Z"/><path class="cls-4" d="M1270.49,767.84c-4-1.51-5.56-7.12-3.51-12.53s7-8.58,10.94-7.08,5.56,7.13,3.51,12.54S1274.48,769.35,1270.49,767.84Z"/><path class="cls-13" d="M1277.51,761.42l.48,1.38-27.9,9.79-.48-1.3Z"/><path class="cls-5" d="M883.11,775.09c-14.76,0-26.72-16.34-26.72-36.41s12-36.41,26.72-36.41,26.72,16.33,26.72,36.41S897.86,775.09,883.11,775.09Z"/><path class="cls-4" d="M856,787.87c-.39-2.71,2.32-5.34,6-5.87s7,1.24,7.42,4-2.32,5.34-6,5.87S856.34,790.58,856,787.87Z"/><path class="cls-12" d="M882.57,729.6H884V830.8h-1.46Z"/><path class="cls-13" d="M860.32,785.21l22.79,11.28-.46.93-22.81-11.28Z"/><path class="cls-7" d="M896.52,776.17c-2.33-5.18,1.52-12,8.6-15.13s14.71-1.54,17,3.64-1.52,12-8.59,15.13S898.85,781.35,896.52,776.17Z"/><path class="cls-13" d="M910.53,770l.48,1.37-27.91,9.8-.48-1.3Z"/><path class="cls-8" d="M1308.73,786.53s28.34-40.12-.23-80C1308.5,706.51,1280.62,738.25,1308.73,786.53Z"/><path class="cls-8" d="M1046.66,786.53s28.33-40.12-.23-80C1046.43,706.51,1018.54,738.25,1046.66,786.53Z"/><line class="cls-10" x1="1046.64" y1="795.63" x2="1046.64" y2="752.81"/><path class="cls-4" d="M1162.38,798s34-37.08-.27-74C1162.11,724.05,1128.63,753.38,1162.38,798Z"/><line class="cls-20" x1="1162.37" y1="809.9" x2="1162.37" y2="752.81"/><line class="cls-21" x1="1308.72" y1="822.22" x2="1308.72" y2="750.85"/></g><g id="colline"><path class="cls-8" d="M827.85,814s20.36,9.46,54.73-13.83S938.39,798,956.87,805s56.13-1.4,87.59-11.83c33.28-11,94.84,1.39,112.9,10.43,15.76,7.89,45.8,15.43,66.85,10.42,22-5.24,24.74-10.42,50.53-10.42,34,0,41.25,24.61,51,24.62,27.52,0,21.75-10.71,52.4-10.15,17.82.33,169.88,23.42,177.72,31.63V870l-727.69,9.19Z"/><path class="cls-5" d="M827.85,835.4s46.54-30,168,23.76c0,0,28,10,58-7.33S1137,829.36,1163.41,838s27.23-5.11,44.38-4.64c33.84.92,33.56,12.4,60.23,13.6s25.66-6.59,46.45-8.8c22.29-2.37,234.62,20.72,241.39,25.75v14.27l-728,1Z"/><path class="cls-5" d="M1555.86,963.86s-91.69-3.73-173.77-10.87-82.07-17.84-199.83-14.27-139.18,28.55-271.21,28.55-121.33-21.42-256.93-28.55-171.29,7.13-285.48,0-96.35-21.41-171.29-28.55S0,921,0,921v157H1555.86Z"/></g></g></g></svg>