<?xml version="1.0" encoding="utf-8"?>
<!-- Generator: Adobe Illustrator 26.2.1, SVG Export Plug-In . SVG Version: 6.00 Build 0)  -->
<svg version="1.1" id="Livello_1" xmlns="http://www.w3.org/2000/svg" xmlns:xlink="http://www.w3.org/1999/xlink" x="0px" y="0px"
	 viewBox="0 0 841.9 595.3" style="enable-background:new 0 0 841.9 595.3;" xml:space="preserve">
<style type="text/css">
	.st0{fill:#FFFFFF;}
	.st1{fill:#FEFEFE;}
</style>
<g>
	<path class="st0" d="M270.4,396.4h26.9l1.8,9h-40.2v-60.9h11.5V396.4z"/>
	<path class="st0" d="M300.9,405.4l23.7-60.9h9.9l23.6,60.2l-11.6,1.6l-5.5-15.2h-23.1l-5.4,14.3L300.9,405.4L300.9,405.4z
		 M321.3,381.7h16.1l-8.1-21.2L321.3,381.7z"/>
	<path class="st0" d="M378.1,364.7v40.7h-11.5v-60.9h11.5l28.2,40.6v-40.6H418v60.9h-11.6L378.1,364.7z"/>
	<path class="st0" d="M456.3,405.4h-23.1v-60.9h23.1c6.1,0,11.3,1.3,15.5,3.8c4.2,2.5,7.3,6.1,9.4,10.6s3.1,9.8,3.1,15.7
		c0,9.6-2.4,17.1-7.3,22.5S465.2,405.3,456.3,405.4z M456.7,354.4h-12v41.3h11.4c5.1,0,9.1-1.7,12-5.1c2.8-3.4,4.3-8.7,4.3-16
		c0-6.5-1.3-11.5-3.9-15S462,354.4,456.7,354.4z"/>
</g>
<g>
	<path class="st0" d="M270.4,428.8v60.9h-11.5v-60.9H270.4z"/>
	<path class="st0" d="M308.7,489.6h-23.1v-60.9h23.1c6.1,0,11.3,1.3,15.5,3.8c4.2,2.5,7.3,6.1,9.4,10.6s3.1,9.8,3.1,15.7
		c0,9.6-2.4,17.1-7.3,22.5C324.6,486.8,317.7,489.5,308.7,489.6z M309.2,438.6h-12v41.3h11.4c5.1,0,9.1-1.7,12-5.1
		c2.8-3.4,4.3-8.7,4.3-16c0-6.5-1.3-11.5-3.9-15C318.4,440.3,314.4,438.6,309.2,438.6z"/>
</g>
<g>
	<path class="st0" d="M408.7,431.4l-3.6,8.3l-2.2-0.6c-2.3-0.7-4.2-1.2-5.5-1.5c-1.4-0.3-3.1-0.4-5.1-0.4c-3.2,0-6.1,0.9-8.7,2.7
		c-2.6,1.8-4.6,4.4-6,7.7c-1.5,3.3-2.2,7.2-2.2,11.7c0,4,0.6,7.6,1.9,11s3.1,5.9,5.6,7.9c2.5,2,5.3,2.9,8.7,2.9
		c4.4,0,8.9-0.9,13.3-2.8l4.4,8.6c-2.3,1.2-5,2.1-8.3,2.9c-3.2,0.7-6.2,1.1-8.8,1.1c-6.1,0-11.4-1.4-15.8-4.1
		c-4.4-2.8-7.6-6.5-9.9-11.2s-3.3-10.1-3.3-16.1c0-6.2,1.2-11.7,3.6-16.6c2.4-4.8,5.9-8.6,10.3-11.3c4.4-2.7,9.6-4.1,15.4-4.1
		c2.1,0,4.8,0.3,7.9,1C403.5,429.1,406.3,430.1,408.7,431.4z"/>
	<path class="st0" d="M411.4,489.6l23.7-60.9h9.9l23.6,60.2l-11.6,1.6l-5.5-15.2h-23.1l-5.4,14.3L411.4,489.6L411.4,489.6z
		 M431.9,465.9H448l-8.1-21.2L431.9,465.9z"/>
	<path class="st0" d="M477.2,489.6v-60.9h19.1c7,0,12.8,1.6,17.3,4.8c4.5,3.2,6.8,7.8,6.8,13.9c0,3.6-0.9,6.8-2.8,9.6
		s-4.4,4.9-7.6,6.5l15,26.1h-12.4l-12.9-23.1h-10.9v23.1L477.2,489.6L477.2,489.6z M495.9,438.4h-7.2V457h7.3c3.6,0,6.5-0.7,8.7-2.2
		c2.2-1.5,3.3-3.8,3.3-6.9C508.1,441.6,504,438.4,495.9,438.4z"/>
	<path class="st0" d="M556.5,489.6h-23.1v-60.9h23.1c6.2,0,11.3,1.3,15.5,3.8c4.2,2.5,7.3,6.1,9.4,10.6s3.1,9.8,3.1,15.7
		c0,9.6-2.4,17.1-7.3,22.5C572.4,486.8,565.5,489.5,556.5,489.6z M556.9,438.6h-12v41.3h11.4c5.1,0,9.1-1.7,12-5.1s4.3-8.7,4.3-16
		c0-6.5-1.3-11.5-3.8-15C566.1,440.3,562.2,438.6,556.9,438.6z"/>
</g>
<path class="st0" d="M402.1,140.5h79.4v-37.2H360.3v220.5h121.2v-37.2h-79.4L402.1,140.5L402.1,140.5z"/>
<path class="st0" d="M300.6,286.6h50.6v37.2h-92.3V103.3h41.8V286.6z"/>
<path class="st0" d="M351.2,278.2h-41.8v-175h41.8V278.2z"/>
<g>
	<path class="st1" d="M598,485.7c0-0.1,0-0.2,0-0.2c0-0.3-0.1-0.7-0.3-1c-0.2-0.4-0.5-0.8-0.8-1.2c-0.2-0.2-0.3-0.3-0.5-0.4
		c-0.4-0.3-0.9-0.4-1.4-0.5c-0.1,0-0.2,0-0.3,0c0,0,0,0,0,0c0,0,0,0,0,0c0,0,0,0,0,0c0,0,0,0,0,0c0,0,0,0-0.1,0c0,0,0,0-0.1,0
		c0,0-0.1,0-0.1,0c0,0,0,0-0.1,0c0,0,0,0,0,0c0,0,0,0,0,0c0,0,0,0,0,0c0,0,0,0,0,0c0,0,0,0-0.1,0c-0.1,0-0.1,0-0.2,0
		c-0.3,0-0.7,0.1-1,0.3c-0.5,0.2-1,0.6-1.3,1c-0.3,0.4-0.5,0.8-0.7,1.3c-0.1,0.3-0.1,0.5-0.1,0.8c0,0.2,0,0.4,0,0.6
		c0,0.4,0.1,0.7,0.3,1.1c0.2,0.5,0.6,1,1,1.3c0.4,0.3,0.8,0.5,1.3,0.7c0.3,0.1,0.5,0.1,0.8,0.1c0.2,0,0.4,0,0.6,0
		c0.4,0,0.7-0.1,1.1-0.3c0.5-0.2,1-0.6,1.3-1c0.4-0.5,0.7-1.1,0.8-1.7c0-0.1,0-0.2,0-0.3c0,0,0,0,0,0c0,0,0,0,0,0c0,0,0,0,0,0
		c0,0,0,0,0,0c0,0,0,0,0-0.1c0,0,0-0.1,0-0.1c0,0,0,0,0-0.1c0,0,0,0,0-0.1c0,0,0,0,0-0.1C598,485.8,598,485.8,598,485.7
		C598,485.8,598,485.8,598,485.7C598,485.8,598,485.8,598,485.7C598,485.8,598,485.8,598,485.7C598,485.7,598,485.7,598,485.7z
		 M594.4,488.9c-1.6,0-2.9-1.3-2.9-2.9c0-1.6,1.3-2.9,2.9-2.9c1.6,0,2.9,1.3,2.9,2.9C597.3,487.6,595.9,488.9,594.4,488.9z"/>
	<path class="st1" d="M594.9,486.1C594.9,486.1,594.9,486.1,594.9,486.1c0.1,0,0.1,0,0.1-0.1c0.2-0.1,0.4-0.3,0.5-0.5
		c0.1-0.2,0.1-0.4,0.1-0.6c0-0.3-0.2-0.6-0.6-0.7c-0.2-0.1-0.4-0.1-0.7-0.1c-0.6,0-1.1,0-1.7,0h0v0.1c0,1.2,0,2.4,0,3.7
		c0,0.1,0,0.1,0.1,0.1c0.3,0,0.6,0,0.8,0c0,0,0,0,0.1,0c0,0,0,0,0-0.1c0-0.4,0-0.9,0-1.3c0,0,0-0.1,0.1-0.1c0.1,0,0.2,0,0.3,0
		c0.2,0,0.3,0.1,0.4,0.2c0.1,0.1,0.1,0.2,0.1,0.2c0.2,0.3,0.3,0.6,0.5,0.9c0,0,0,0,0.1,0c0.3,0,0.6,0,1,0c0,0,0,0,0,0
		c-0.2-0.4-0.4-0.8-0.6-1.2C595.3,486.4,595.1,486.2,594.9,486.1z M594.6,485.5c-0.1,0.2-0.2,0.2-0.3,0.2c-0.2,0-0.4,0-0.6,0
		c0,0,0,0,0,0c0-0.1,0-0.3,0-0.4c0-0.1,0-0.3,0-0.4c0,0,0,0,0,0c0.2,0,0.4,0,0.6,0c0.1,0,0.1,0,0.2,0c0.2,0.1,0.2,0.2,0.3,0.4
		C594.6,485.3,594.6,485.4,594.6,485.5z"/>
</g>
</svg>
