<svg width="70" height="77" viewBox="0 0 70 77" fill="none" xmlns="http://www.w3.org/2000/svg">
<g clip-path="url(#clip0_1_267)">
<path d="M27.6626 7.25593H43.0002V0H19.583V43H43.0002V35.7441H27.6626V7.25593Z" fill="black"/>
<path d="M8.0625 35.7268H17.8368V42.9827H0V0H8.0625V35.7268Z" fill="black"/>
<path d="M17.8369 34.1029H9.77441V0H17.8369V34.1029Z" fill="#8E1B2B"/>
</g>
<g clip-path="url(#clip1_1_267)">
<path d="M2.29953 59.0717H7.6592L8.01297 60.8278H0V49H2.29953V59.0717Z" fill="#8E1B2B"/>
<path d="M8.38428 60.8278L13.1248 49H15.0883L19.8112 60.6901L17.4939 61L16.3972 58.0387H11.7805L10.7015 60.8278H8.38428ZM12.4527 56.2138H15.672L14.0447 52.0818L12.4527 56.2138Z" fill="black"/>
<path d="M23.8088 52.9082V60.8278H21.5093V49H23.8088L29.4338 56.9024V49H31.751V60.8278H29.4338L23.8088 52.9082Z" fill="black"/>
<path d="M39.4102 60.8278H34.7935V49H39.4102C40.6307 49 41.6744 49.241 42.5057 49.7403C43.3371 50.2396 43.9739 50.911 44.3807 51.7891C44.7876 52.6671 44.9998 53.6829 44.9998 54.8364C44.9998 56.6958 44.5222 58.1593 43.5494 59.2095C42.5765 60.2769 41.1968 60.8106 39.4102 60.8278ZM39.4986 50.911H37.1107V58.934H39.3748C40.4008 58.934 41.1968 58.6069 41.7628 57.9527C42.3288 57.2984 42.6119 56.2654 42.6119 54.8537C42.6119 53.5968 42.3465 52.6155 41.8512 51.944C41.3206 51.2554 40.5423 50.911 39.4986 50.911Z" fill="black"/>
</g>
<g clip-path="url(#clip2_1_267)">
<path d="M2.21843 65V77H0V65H2.21843Z" fill="#8E1B2B"/>
<path d="M9.60773 77H5.15381V65H9.60773C10.7852 65 11.792 65.2445 12.5941 65.7511C13.3961 66.2576 14.0105 66.9389 14.403 67.8297C14.7954 68.7205 15.0002 69.7511 15.0002 70.9214C15.0002 72.8079 14.5395 74.2926 13.6009 75.3581C12.6623 76.441 11.3313 76.9825 9.60773 77ZM9.69306 66.9389H7.37224V75.0786H9.55654C10.5463 75.0786 11.3142 74.7467 11.8603 74.083C12.4064 73.4192 12.6794 72.3712 12.6794 70.9389C12.6794 69.6638 12.4234 68.6681 11.9456 67.9869C11.4507 67.2882 10.6999 66.9389 9.69306 66.9389Z" fill="black"/>
</g>
<g clip-path="url(#clip3_1_267)">
<path d="M28.9248 65.7385L28.2289 67.3161L27.794 67.1986C27.3417 67.0643 26.9763 66.9636 26.698 66.9133C26.4196 66.8797 26.0891 66.8462 25.6889 66.8462C25.0626 66.8462 24.4885 67.014 23.984 67.3497C23.4795 67.6853 23.0793 68.172 22.801 68.8098C22.5052 69.4476 22.366 70.186 22.366 71.0252C22.366 71.7804 22.4878 72.4685 22.7488 73.1063C22.9923 73.7273 23.3751 74.2308 23.8448 74.6C24.3319 74.9692 24.8887 75.1538 25.5498 75.1538C26.4196 75.1538 27.2895 74.986 28.1768 74.6336L29.0292 76.2615C28.5769 76.4797 28.0376 76.6643 27.4113 76.7986C26.7676 76.9329 26.1935 77 25.6715 77C24.4711 77 23.4273 76.7483 22.5748 76.228C21.7223 75.7077 21.0786 75.0028 20.6437 74.0965C20.2088 73.1902 20 72.1832 20 71.0587C20 69.8839 20.2436 68.8434 20.7133 67.9203C21.183 66.9972 21.8615 66.2923 22.7314 65.772C23.6013 65.2517 24.6103 65 25.7585 65C26.1761 65 26.698 65.0671 27.3069 65.1846C27.9158 65.3189 28.4551 65.5035 28.9248 65.7385Z" fill="#8E1B2B"/>
<path d="M29.4814 76.7649L34.1265 65.2349H36.0576L40.7027 76.6307L38.4237 76.9328L37.345 74.0628H32.8217L31.7605 76.7817H29.4814V76.7649ZM33.4828 72.267H36.6492L35.0486 68.2391L33.4828 72.267Z" fill="black"/>
<path d="M42.373 76.7649V65.2349H46.1135C47.4879 65.2349 48.6361 65.537 49.506 66.1412C50.3932 66.7454 50.8282 67.6181 50.8282 68.7761C50.8282 69.4642 50.6368 70.0684 50.2714 70.5887C49.9061 71.109 49.4016 71.5118 48.7927 71.8139L51.7328 76.7649H49.3146L46.792 72.4013H44.6521V76.7817H42.373V76.7649ZM46.0439 67.0642H44.6347V70.5887H46.0787C46.792 70.5887 47.3661 70.4544 47.801 70.1691C48.236 69.8838 48.4447 69.4642 48.4447 68.8768C48.4447 67.6684 47.6444 67.0642 46.0439 67.0642Z" fill="black"/>
<path d="M57.9435 76.7649H53.4028V65.2349H57.9435C59.144 65.2349 60.1704 65.4698 60.9881 65.9565C61.8058 66.4433 62.4321 67.0978 62.8322 67.9537C63.2323 68.8097 63.4411 69.7999 63.4411 70.9244C63.4411 72.737 62.9714 74.1635 62.0145 75.1873C61.0577 76.2279 59.7007 76.7482 57.9435 76.7649ZM58.0305 67.0978H55.6819V74.9188H57.9087C58.9178 74.9188 59.7007 74.5999 60.2574 73.9621C60.8141 73.3244 61.0925 72.3174 61.0925 70.9412C61.0925 69.716 60.8315 68.7593 60.3444 68.1048C59.8399 67.4335 59.0744 67.0978 58.0305 67.0978Z" fill="black"/>
<path d="M68.034 74.4993C68.0688 74.5161 68.0862 74.5161 68.121 74.5328C68.1732 74.5664 68.2254 74.6 68.2776 74.6503C68.3646 74.7342 68.4167 74.8349 68.4689 74.9356C68.5559 75.1203 68.6603 75.3049 68.7473 75.4895C68.7647 75.5231 68.7821 75.5566 68.7995 75.5902C68.7995 75.5902 68.7995 75.5902 68.7995 75.607H68.7821C68.5733 75.607 68.3646 75.607 68.1384 75.607C68.1384 75.607 68.121 75.607 68.121 75.5902C68.034 75.4391 67.9644 75.2713 67.8774 75.1203C67.8426 75.0531 67.8078 74.986 67.773 74.9189C67.7383 74.8685 67.7035 74.8182 67.6513 74.7846C67.5991 74.751 67.5469 74.7342 67.4947 74.7175C67.4077 74.7175 67.3207 74.7175 67.2337 74.7007C67.2337 75.0028 67.2337 75.2881 67.2337 75.5902C67.025 75.5902 66.8162 75.5902 66.6074 75.5902C66.6074 74.8182 66.6074 74.0461 66.6074 73.2573H66.6248C66.938 73.2573 67.2685 73.2573 67.5817 73.2573C67.7035 73.2573 67.8252 73.2741 67.947 73.2909C68.0514 73.3077 68.1558 73.3412 68.2428 73.4084C68.3298 73.4587 68.382 73.5259 68.4167 73.6098C68.4515 73.6769 68.4689 73.7273 68.4689 73.7944C68.4689 73.8447 68.4863 73.9119 68.4689 73.9622C68.4515 74.0965 68.4167 74.214 68.3298 74.2979C68.2776 74.365 68.208 74.4154 68.121 74.4489C68.1036 74.4657 68.0688 74.4825 68.034 74.4993ZM67.2337 74.2979C67.2511 74.2979 67.2511 74.2979 67.2337 74.2979C67.3555 74.2979 67.4599 74.2979 67.5817 74.2979C67.6165 74.2979 67.6687 74.2811 67.7035 74.2811C67.773 74.2643 67.8078 74.2308 67.8426 74.1636C67.86 74.1301 67.86 74.0965 67.8774 74.0629C67.8774 73.9958 67.8774 73.9287 67.86 73.8783C67.8426 73.8112 67.7904 73.7776 67.7383 73.7608C67.6861 73.744 67.6165 73.7273 67.5643 73.7273C67.4773 73.7273 67.3729 73.7273 67.2859 73.7273C67.2859 73.7273 67.2859 73.7273 67.2685 73.7273C67.2337 73.8951 67.2337 74.0965 67.2337 74.2979Z" fill="black"/>
<path d="M67.6164 72.1831C66.3115 72.1831 65.2329 73.2069 65.2329 74.4824C65.2329 75.7411 66.2942 76.7817 67.6164 76.7817C68.9212 76.7817 69.9998 75.7579 69.9998 74.4824C69.9998 73.2069 68.9385 72.1831 67.6164 72.1831ZM67.6164 76.2614C66.5899 76.2614 65.7722 75.4558 65.7722 74.4824C65.7722 73.4922 66.6073 72.7034 67.6164 72.7034C68.6428 72.7034 69.4605 73.509 69.4605 74.4824C69.4779 75.4726 68.6428 76.2614 67.6164 76.2614Z" fill="black"/>
</g>
<defs>
<clipPath id="clip0_1_267">
<rect width="43" height="43" fill="white"/>
</clipPath>
<clipPath id="clip1_1_267">
<rect width="45" height="12" fill="white" transform="translate(0 49)"/>
</clipPath>
<clipPath id="clip2_1_267">
<rect width="15" height="12" fill="white" transform="translate(0 65)"/>
</clipPath>
<clipPath id="clip3_1_267">
<rect width="50" height="12" fill="white" transform="translate(20 65)"/>
</clipPath>
</defs>
</svg>
